<svg width="142" height="45" viewBox="0 0 142 45" fill="none" xmlns="http://www.w3.org/2000/svg">
<path d="M7.992 0.736023V34H0.119995V0.736023H7.992Z" fill="#141414"/>
<path d="M23.0145 7.69602C24.8385 7.69602 26.5505 7.96802 28.1505 8.51202C29.7505 9.05602 31.1585 9.82402 32.3745 10.816L29.5905 15.088C27.5105 13.776 25.4145 13.12 23.3025 13.12C22.3105 13.12 21.5425 13.296 20.9985 13.648C20.4865 13.968 20.2305 14.432 20.2305 15.04C20.2305 15.52 20.3425 15.92 20.5665 16.24C20.8225 16.528 21.3185 16.832 22.0545 17.152C22.7905 17.472 23.9265 17.856 25.4625 18.304C28.1185 19.072 30.0865 20.08 31.3665 21.328C32.6785 22.544 33.3345 24.24 33.3345 26.416C33.3345 28.144 32.8385 29.648 31.8465 30.928C30.8545 32.176 29.4945 33.136 27.7665 33.808C26.0385 34.48 24.1185 34.816 22.0065 34.816C19.8625 34.816 17.8625 34.48 16.0065 33.808C14.1825 33.136 12.6305 32.208 11.3505 31.024L15.0465 26.896C17.1905 28.56 19.4465 29.392 21.8145 29.392C22.9665 29.392 23.8625 29.184 24.5025 28.768C25.1745 28.352 25.5105 27.76 25.5105 26.992C25.5105 26.384 25.3825 25.904 25.1265 25.552C24.8705 25.2 24.3745 24.88 23.6385 24.592C22.9025 24.272 21.7345 23.888 20.1345 23.44C17.6065 22.704 15.7185 21.68 14.4705 20.368C13.2225 19.056 12.5985 17.424 12.5985 15.472C12.5985 14 13.0145 12.688 13.8465 11.536C14.7105 10.352 15.9265 9.42402 17.4945 8.75202C19.0945 8.04802 20.9345 7.69602 23.0145 7.69602Z" fill="#141414"/>
<path d="M57.0289 26.608C57.0289 27.568 57.1569 28.272 57.4129 28.72C57.7009 29.168 58.1489 29.504 58.7569 29.728L57.1729 34.672C55.6049 34.544 54.3249 34.208 53.3329 33.664C52.3409 33.088 51.5729 32.192 51.0289 30.976C49.3649 33.536 46.8049 34.816 43.3489 34.816C40.8209 34.816 38.8049 34.08 37.3009 32.608C35.7969 31.136 35.0449 29.216 35.0449 26.848C35.0449 24.064 36.0689 21.936 38.1169 20.464C40.1649 18.992 43.1249 18.256 46.9969 18.256H49.5889V17.152C49.5889 15.648 49.2689 14.624 48.6289 14.08C47.9889 13.504 46.8689 13.216 45.2689 13.216C44.4369 13.216 43.4289 13.344 42.2449 13.6C41.0609 13.824 39.8449 14.144 38.5969 14.56L36.8689 9.56802C38.4689 8.96002 40.1009 8.49602 41.7649 8.17602C43.4609 7.85602 45.0289 7.69602 46.4689 7.69602C50.1169 7.69602 52.7889 8.44802 54.4849 9.95202C56.1809 11.456 57.0289 13.712 57.0289 16.72V26.608ZM45.5569 29.392C47.2849 29.392 48.6289 28.576 49.5889 26.944V22.432H47.7169C45.9889 22.432 44.6929 22.736 43.8289 23.344C42.9969 23.952 42.5809 24.896 42.5809 26.176C42.5809 27.2 42.8369 28 43.3489 28.576C43.8929 29.12 44.6289 29.392 45.5569 29.392Z" fill="#141414"/>
<path d="M85.9177 8.51202V44.656L78.3337 43.84V31.552C76.6377 33.728 74.3817 34.816 71.5657 34.816C68.3977 34.816 65.9817 33.6 64.3177 31.168C62.6857 28.736 61.8697 25.408 61.8697 21.184C61.8697 18.56 62.3017 16.24 63.1657 14.224C64.0297 12.176 65.2457 10.576 66.8137 9.42402C68.4137 8.27202 70.2537 7.69602 72.3337 7.69602C74.9257 7.69602 77.1177 8.70402 78.9097 10.72L79.2937 8.51202H85.9177ZM73.9177 29.248C75.6777 29.248 77.1497 28.288 78.3337 26.368V15.376C77.7257 14.64 77.1177 14.096 76.5097 13.744C75.9017 13.392 75.1977 13.216 74.3977 13.216C72.9577 13.216 71.8217 13.872 70.9897 15.184C70.1577 16.464 69.7417 18.48 69.7417 21.232C69.7417 24.208 70.0937 26.288 70.7977 27.472C71.5337 28.656 72.5737 29.248 73.9177 29.248Z" fill="#141414"/>
<path d="M113.355 34H106.779L106.443 30.784C104.587 33.472 102.011 34.816 98.715 34.816C96.379 34.816 94.603 34.112 93.387 32.704C92.203 31.296 91.611 29.328 91.611 26.8V8.51202H99.195V25.84C99.195 27.088 99.387 27.968 99.771 28.48C100.187 28.96 100.811 29.2 101.643 29.2C103.243 29.2 104.619 28.208 105.771 26.224V8.51202H113.355V34Z" fill="#141414"/>
<path d="M141.544 20.752C141.544 21.808 141.496 22.72 141.4 23.488H125.608C125.864 25.632 126.472 27.136 127.432 28C128.392 28.864 129.72 29.296 131.416 29.296C132.44 29.296 133.432 29.12 134.392 28.768C135.352 28.384 136.392 27.808 137.512 27.04L140.632 31.264C137.656 33.632 134.344 34.816 130.696 34.816C126.568 34.816 123.4 33.6 121.192 31.168C118.984 28.736 117.88 25.472 117.88 21.376C117.88 18.784 118.344 16.464 119.272 14.416C120.2 12.336 121.56 10.704 123.352 9.52002C125.144 8.30402 127.288 7.69602 129.784 7.69602C133.464 7.69602 136.344 8.84802 138.424 11.152C140.504 13.456 141.544 16.656 141.544 20.752ZM134.104 18.592C134.04 14.688 132.664 12.736 129.976 12.736C128.664 12.736 127.64 13.216 126.904 14.176C126.2 15.136 125.768 16.72 125.608 18.928H134.104V18.592Z" fill="#141414"/>
</svg>
